<svg width="383" height="71" viewBox="0 0 383 71" fill="none" xmlns="http://www.w3.org/2000/svg">
<rect width="383" height="71" rx="5" fill="#4F4F4F"/>
<path d="M105.045 32C104.858 31.4261 104.611 30.9119 104.304 30.4574C104.003 29.9972 103.642 29.6051 103.222 29.2812C102.807 28.9574 102.335 28.7102 101.807 28.5398C101.278 28.3693 100.699 28.2841 100.068 28.2841C99.0341 28.2841 98.0938 28.5511 97.2472 29.0852C96.4006 29.6193 95.7273 30.4062 95.2273 31.446C94.7273 32.4858 94.4773 33.7614 94.4773 35.2727C94.4773 36.7841 94.7301 38.0597 95.2358 39.0994C95.7415 40.1392 96.4261 40.9261 97.2898 41.4602C98.1534 41.9943 99.125 42.2614 100.205 42.2614C101.205 42.2614 102.085 42.0483 102.847 41.6222C103.614 41.1903 104.21 40.5824 104.636 39.7983C105.068 39.0085 105.284 38.0795 105.284 37.0114L105.932 37.1477H100.682V35.2727H107.33V37.1477C107.33 38.5852 107.023 39.8352 106.409 40.8977C105.801 41.9602 104.96 42.7841 103.886 43.3693C102.818 43.9489 101.591 44.2386 100.205 44.2386C98.6591 44.2386 97.3011 43.875 96.1307 43.1477C94.9659 42.4205 94.0568 41.3864 93.4034 40.0455C92.7557 38.7045 92.4318 37.1136 92.4318 35.2727C92.4318 33.892 92.6165 32.6506 92.9858 31.5483C93.3608 30.4403 93.8892 29.4972 94.571 28.7188C95.2528 27.9403 96.0597 27.3438 96.9915 26.929C97.9233 26.5142 98.9489 26.3068 100.068 26.3068C100.989 26.3068 101.847 26.446 102.642 26.7244C103.443 26.9972 104.156 27.3864 104.781 27.892C105.412 28.392 105.938 28.9915 106.358 29.6903C106.778 30.3835 107.068 31.1534 107.227 32H105.045ZM118.927 38.6477V30.9091H120.938V44H118.927V41.7841H118.79C118.484 42.4489 118.006 43.0142 117.359 43.4801C116.711 43.9403 115.893 44.1705 114.904 44.1705C114.086 44.1705 113.359 43.9915 112.722 43.6335C112.086 43.2699 111.586 42.7244 111.222 41.9972C110.859 41.2642 110.677 40.3409 110.677 39.2273V30.9091H112.688V39.0909C112.688 40.0455 112.955 40.8068 113.489 41.375C114.029 41.9432 114.717 42.2273 115.552 42.2273C116.052 42.2273 116.56 42.0994 117.077 41.8438C117.6 41.5881 118.038 41.196 118.39 40.6676C118.748 40.1392 118.927 39.4659 118.927 38.6477ZM128.474 44.3068C127.645 44.3068 126.892 44.1506 126.216 43.8381C125.54 43.5199 125.003 43.0625 124.605 42.4659C124.207 41.8636 124.009 41.1364 124.009 40.2841C124.009 39.5341 124.156 38.9261 124.452 38.4602C124.747 37.9886 125.142 37.6193 125.636 37.3523C126.131 37.0852 126.676 36.8864 127.273 36.7557C127.875 36.6193 128.48 36.5114 129.088 36.4318C129.884 36.3295 130.528 36.2528 131.023 36.2017C131.523 36.1449 131.886 36.0511 132.114 35.9205C132.347 35.7898 132.463 35.5625 132.463 35.2386V35.1705C132.463 34.3295 132.233 33.6761 131.773 33.2102C131.318 32.7443 130.628 32.5114 129.702 32.5114C128.741 32.5114 127.989 32.7216 127.443 33.142C126.898 33.5625 126.514 34.0114 126.293 34.4886L124.384 33.8068C124.724 33.0114 125.179 32.392 125.747 31.9489C126.321 31.5 126.946 31.1875 127.622 31.0114C128.304 30.8295 128.974 30.7386 129.634 30.7386C130.054 30.7386 130.537 30.7898 131.082 30.892C131.634 30.9886 132.165 31.1903 132.676 31.4972C133.193 31.804 133.622 32.267 133.963 32.8864C134.304 33.5057 134.474 34.3352 134.474 35.375V44H132.463V42.2273H132.361C132.224 42.5114 131.997 42.8153 131.679 43.1392C131.361 43.4631 130.938 43.7386 130.409 43.9659C129.881 44.1932 129.236 44.3068 128.474 44.3068ZM128.781 42.5C129.577 42.5 130.247 42.3438 130.793 42.0312C131.344 41.7188 131.759 41.3153 132.037 40.821C132.321 40.3267 132.463 39.8068 132.463 39.2614V37.4205C132.378 37.5227 132.19 37.6165 131.901 37.7017C131.616 37.7812 131.287 37.8523 130.912 37.9148C130.543 37.9716 130.182 38.0227 129.83 38.0682C129.483 38.108 129.202 38.142 128.986 38.1705C128.463 38.2386 127.974 38.3494 127.52 38.5028C127.071 38.6506 126.707 38.875 126.429 39.1761C126.156 39.4716 126.02 39.875 126.02 40.3864C126.02 41.0852 126.278 41.6136 126.795 41.9716C127.318 42.3239 127.98 42.5 128.781 42.5ZM138.146 44V30.9091H140.089V32.8864H140.225C140.464 32.2386 140.896 31.7131 141.521 31.3097C142.146 30.9062 142.85 30.7045 143.634 30.7045C143.782 30.7045 143.967 30.7074 144.188 30.7131C144.41 30.7187 144.577 30.7273 144.691 30.7386V32.7841C144.623 32.767 144.467 32.7415 144.222 32.7074C143.984 32.6676 143.731 32.6477 143.464 32.6477C142.827 32.6477 142.259 32.7812 141.759 33.0483C141.265 33.3097 140.873 33.6733 140.583 34.1392C140.299 34.5994 140.157 35.125 140.157 35.7159V44H138.146ZM150.928 44.3068C150.098 44.3068 149.345 44.1506 148.669 43.8381C147.993 43.5199 147.456 43.0625 147.058 42.4659C146.661 41.8636 146.462 41.1364 146.462 40.2841C146.462 39.5341 146.609 38.9261 146.905 38.4602C147.2 37.9886 147.595 37.6193 148.089 37.3523C148.584 37.0852 149.129 36.8864 149.726 36.7557C150.328 36.6193 150.933 36.5114 151.541 36.4318C152.337 36.3295 152.982 36.2528 153.476 36.2017C153.976 36.1449 154.339 36.0511 154.567 35.9205C154.8 35.7898 154.916 35.5625 154.916 35.2386V35.1705C154.916 34.3295 154.686 33.6761 154.226 33.2102C153.771 32.7443 153.081 32.5114 152.155 32.5114C151.195 32.5114 150.442 32.7216 149.896 33.142C149.351 33.5625 148.967 34.0114 148.746 34.4886L146.837 33.8068C147.178 33.0114 147.632 32.392 148.2 31.9489C148.774 31.5 149.399 31.1875 150.075 31.0114C150.757 30.8295 151.428 30.7386 152.087 30.7386C152.507 30.7386 152.99 30.7898 153.536 30.892C154.087 30.9886 154.618 31.1903 155.129 31.4972C155.646 31.804 156.075 32.267 156.416 32.8864C156.757 33.5057 156.928 34.3352 156.928 35.375V44H154.916V42.2273H154.814C154.678 42.5114 154.45 42.8153 154.132 43.1392C153.814 43.4631 153.391 43.7386 152.862 43.9659C152.334 44.1932 151.689 44.3068 150.928 44.3068ZM151.234 42.5C152.03 42.5 152.7 42.3438 153.246 42.0312C153.797 41.7188 154.212 41.3153 154.49 40.821C154.774 40.3267 154.916 39.8068 154.916 39.2614V37.4205C154.831 37.5227 154.643 37.6165 154.354 37.7017C154.07 37.7812 153.74 37.8523 153.365 37.9148C152.996 37.9716 152.635 38.0227 152.283 38.0682C151.936 38.108 151.655 38.142 151.439 38.1705C150.916 38.2386 150.428 38.3494 149.973 38.5028C149.524 38.6506 149.161 38.875 148.882 39.1761C148.609 39.4716 148.473 39.875 148.473 40.3864C148.473 41.0852 148.732 41.6136 149.249 41.9716C149.771 42.3239 150.433 42.5 151.234 42.5ZM162.61 36.125V44H160.599V30.9091H162.542V32.9545H162.712C163.019 32.2898 163.485 31.7557 164.11 31.3523C164.735 30.9432 165.542 30.7386 166.531 30.7386C167.417 30.7386 168.192 30.9205 168.857 31.2841C169.522 31.642 170.039 32.1875 170.408 32.9205C170.778 33.6477 170.962 34.5682 170.962 35.6818V44H168.951V35.8182C168.951 34.7898 168.684 33.9886 168.15 33.4148C167.616 32.8352 166.883 32.5455 165.951 32.5455C165.309 32.5455 164.735 32.6847 164.229 32.9631C163.729 33.2415 163.335 33.6477 163.045 34.1818C162.755 34.7159 162.61 35.3636 162.61 36.125ZM180.331 30.9091V32.6136H173.547V30.9091H180.331ZM175.524 27.7727H177.536V40.25C177.536 40.8182 177.618 41.2443 177.783 41.5284C177.953 41.8068 178.169 41.9943 178.43 42.0909C178.697 42.1818 178.979 42.2273 179.274 42.2273C179.496 42.2273 179.678 42.2159 179.82 42.1932C179.962 42.1648 180.075 42.142 180.161 42.125L180.57 43.9318C180.433 43.983 180.243 44.0341 179.999 44.0852C179.754 44.142 179.445 44.1705 179.07 44.1705C178.501 44.1705 177.945 44.0483 177.399 43.804C176.859 43.5597 176.411 43.1875 176.053 42.6875C175.7 42.1875 175.524 41.5568 175.524 40.7955V27.7727ZM188.705 44.2727C187.443 44.2727 186.355 43.9943 185.44 43.4375C184.531 42.875 183.83 42.0909 183.335 41.0852C182.847 40.0739 182.602 38.8977 182.602 37.5568C182.602 36.2159 182.847 35.0341 183.335 34.0114C183.83 32.983 184.517 32.1818 185.398 31.608C186.284 31.0284 187.318 30.7386 188.5 30.7386C189.182 30.7386 189.855 30.8523 190.52 31.0795C191.185 31.3068 191.79 31.6761 192.335 32.1875C192.881 32.6932 193.315 33.3636 193.639 34.1989C193.963 35.0341 194.125 36.0625 194.125 37.2841V38.1364H184.034V36.3977H192.08C192.08 35.6591 191.932 35 191.636 34.4205C191.347 33.8409 190.932 33.3835 190.392 33.0483C189.858 32.7131 189.227 32.5455 188.5 32.5455C187.699 32.5455 187.006 32.7443 186.42 33.142C185.841 33.5341 185.395 34.0455 185.082 34.6761C184.77 35.3068 184.614 35.983 184.614 36.7045V37.8636C184.614 38.8523 184.784 39.6903 185.125 40.3778C185.472 41.0597 185.952 41.5795 186.565 41.9375C187.179 42.2898 187.892 42.4659 188.705 42.4659C189.233 42.4659 189.71 42.392 190.136 42.2443C190.568 42.0909 190.94 41.8636 191.253 41.5625C191.565 41.2557 191.807 40.875 191.977 40.4205L193.92 40.9659C193.716 41.625 193.372 42.2045 192.889 42.7045C192.406 43.1989 191.81 43.5852 191.099 43.8636C190.389 44.1364 189.591 44.2727 188.705 44.2727ZM202.673 44.2727C201.412 44.2727 200.324 43.9943 199.409 43.4375C198.5 42.875 197.798 42.0909 197.304 41.0852C196.815 40.0739 196.571 38.8977 196.571 37.5568C196.571 36.2159 196.815 35.0341 197.304 34.0114C197.798 32.983 198.486 32.1818 199.366 31.608C200.253 31.0284 201.287 30.7386 202.469 30.7386C203.151 30.7386 203.824 30.8523 204.489 31.0795C205.153 31.3068 205.759 31.6761 206.304 32.1875C206.849 32.6932 207.284 33.3636 207.608 34.1989C207.932 35.0341 208.094 36.0625 208.094 37.2841V38.1364H198.003V36.3977H206.048C206.048 35.6591 205.901 35 205.605 34.4205C205.315 33.8409 204.901 33.3835 204.361 33.0483C203.827 32.7131 203.196 32.5455 202.469 32.5455C201.668 32.5455 200.974 32.7443 200.389 33.142C199.81 33.5341 199.364 34.0455 199.051 34.6761C198.739 35.3068 198.582 35.983 198.582 36.7045V37.8636C198.582 38.8523 198.753 39.6903 199.094 40.3778C199.44 41.0597 199.92 41.5795 200.534 41.9375C201.148 42.2898 201.861 42.4659 202.673 42.4659C203.202 42.4659 203.679 42.392 204.105 42.2443C204.537 42.0909 204.909 41.8636 205.222 41.5625C205.534 41.2557 205.776 40.875 205.946 40.4205L207.889 40.9659C207.685 41.625 207.341 42.2045 206.858 42.7045C206.375 43.1989 205.778 43.5852 205.068 43.8636C204.358 44.1364 203.56 44.2727 202.673 44.2727Z" fill="white"/>
<rect width="74" height="71" rx="5" fill="#D9D9D9"/>
<g clip-path="url(#clip0_13_4)">
<path d="M34.9146 6.63384C36.175 5.79263 37.825 5.79263 39.0854 6.63384L41.125 7.98208C41.8125 8.43149 42.6146 8.65044 43.4281 8.60435L45.8688 8.45454C47.3813 8.36235 48.8021 9.19204 49.4781 10.5518L50.5781 12.7528C50.9448 13.4903 51.5406 14.078 52.2625 14.4467L54.474 15.5645C55.826 16.2444 56.6511 17.6733 56.5594 19.1944L56.4104 21.6489C56.3646 22.467 56.5823 23.2852 57.0292 23.9651L58.3813 26.0163C59.2177 27.2838 59.2177 28.9432 58.3813 30.2108L57.0292 32.2735C56.5823 32.9649 56.3646 33.7715 56.4104 34.5897L56.5594 37.0442C56.6511 38.5653 55.826 39.9942 54.474 40.6741L52.2854 41.7803C51.5521 42.1491 50.9677 42.7483 50.6011 43.4743L49.4896 45.6983C48.8135 47.0581 47.3927 47.8877 45.8802 47.7956L43.4396 47.6457C42.626 47.5997 41.8125 47.8186 41.1365 48.268L39.0969 49.6278C37.8365 50.469 36.1865 50.469 34.926 49.6278L32.875 48.268C32.1875 47.8186 31.3854 47.5997 30.5719 47.6457L28.1313 47.7956C26.6188 47.8877 25.1979 47.0581 24.5219 45.6983L23.4219 43.4973C23.0552 42.7598 22.4594 42.1721 21.7375 41.8034L19.526 40.6856C18.174 40.0057 17.349 38.5768 17.4406 37.0557L17.5896 34.6012C17.6354 33.7831 17.4177 32.9649 16.9708 32.285L15.6302 30.2223C14.7938 28.9547 14.7938 27.2954 15.6302 26.0278L16.9708 23.9766C17.4177 23.2852 17.6354 22.4786 17.5896 21.6604L17.4406 19.2059C17.349 17.6848 18.174 16.2559 19.526 15.576L21.7146 14.4698C22.4479 14.0895 23.0438 13.4903 23.4104 12.7528L24.5104 10.5518C25.1865 9.19204 26.6073 8.36235 28.1198 8.45454L30.5604 8.60435C31.374 8.65044 32.1875 8.43149 32.8635 7.98208L34.9146 6.63384ZM46.1667 28.125C46.1667 25.6801 45.2009 23.3353 43.4818 21.6064C41.7627 19.8776 39.4312 18.9063 37 18.9063C34.5689 18.9063 32.2373 19.8776 30.5182 21.6064C28.7991 23.3353 27.8333 25.6801 27.8333 28.125C27.8333 30.57 28.7991 32.9148 30.5182 34.6437C32.2373 36.3725 34.5689 37.3438 37 37.3438C39.4312 37.3438 41.7627 36.3725 43.4818 34.6437C45.2009 32.9148 46.1667 30.57 46.1667 28.125ZM15.149 56.9106L20.0875 45.0991C20.1104 45.1106 20.1219 45.1221 20.1333 45.1452L21.2333 47.3461C22.574 50.0196 25.3583 51.6444 28.3375 51.4715L30.7781 51.3217C30.801 51.3217 30.8354 51.3217 30.8583 51.3448L32.8979 52.7045C33.4823 53.0848 34.101 53.3844 34.7427 53.5918L30.4344 63.8823C30.1708 64.5161 29.5865 64.9424 28.9104 65C28.2344 65.0577 27.5813 64.7465 27.2146 64.1704L23.525 58.4893L17.0969 59.4457C16.4438 59.5379 15.7906 59.2729 15.3781 58.7543C14.9656 58.2358 14.8854 57.5213 15.1375 56.9106H15.149ZM43.5656 63.8708L39.2573 53.5918C39.899 53.3844 40.5177 53.0963 41.1021 52.7045L43.1417 51.3448C43.1646 51.3332 43.1875 51.3217 43.2219 51.3217L45.6625 51.4715C48.6417 51.6444 51.426 50.0196 52.7667 47.3461L53.8667 45.1452C53.8781 45.1221 53.8896 45.1106 53.9125 45.0991L58.8625 56.9106C59.1146 57.5213 59.0229 58.2243 58.6219 58.7543C58.2208 59.2844 57.5563 59.5495 56.9031 59.4457L50.475 58.4893L46.7854 64.1588C46.4188 64.735 45.7656 65.0461 45.0896 64.9885C44.4135 64.9309 43.8292 64.493 43.5656 63.8708Z" fill="#4F4F4F"/>
</g>
<defs>
<clipPath id="clip0_13_4">
<rect width="44" height="59" fill="white" transform="translate(15 6)"/>
</clipPath>
</defs>
</svg>
