<svg width="383" height="71" viewBox="0 0 383 71" fill="none" xmlns="http://www.w3.org/2000/svg">
<rect width="383" height="71" rx="5" fill="#4F4F4F"/>
<path d="M93.1136 44V26.5455H99.0114C100.375 26.5455 101.494 26.7784 102.369 27.2443C103.244 27.7045 103.892 28.3381 104.312 29.1449C104.733 29.9517 104.943 30.8693 104.943 31.8977C104.943 32.9261 104.733 33.8381 104.312 34.6335C103.892 35.429 103.247 36.054 102.378 36.5085C101.509 36.9574 100.398 37.1818 99.0455 37.1818H94.2727V35.2727H98.9773C99.9091 35.2727 100.659 35.1364 101.227 34.8636C101.801 34.5909 102.216 34.2045 102.472 33.7045C102.733 33.1989 102.864 32.5966 102.864 31.8977C102.864 31.1989 102.733 30.5881 102.472 30.0653C102.21 29.5426 101.793 29.1392 101.219 28.8551C100.645 28.5653 99.8864 28.4205 98.9432 28.4205H95.2273V44H93.1136ZM101.33 36.1591L105.625 44H103.17L98.9432 36.1591H101.33ZM113.54 44.2727C112.279 44.2727 111.191 43.9943 110.276 43.4375C109.367 42.875 108.665 42.0909 108.171 41.0852C107.683 40.0739 107.438 38.8977 107.438 37.5568C107.438 36.2159 107.683 35.0341 108.171 34.0114C108.665 32.983 109.353 32.1818 110.234 31.608C111.12 31.0284 112.154 30.7386 113.336 30.7386C114.018 30.7386 114.691 30.8523 115.356 31.0795C116.021 31.3068 116.626 31.6761 117.171 32.1875C117.717 32.6932 118.151 33.3636 118.475 34.1989C118.799 35.0341 118.961 36.0625 118.961 37.2841V38.1364H108.87V36.3977H116.915C116.915 35.6591 116.768 35 116.472 34.4205C116.183 33.8409 115.768 33.3835 115.228 33.0483C114.694 32.7131 114.063 32.5455 113.336 32.5455C112.535 32.5455 111.842 32.7443 111.256 33.142C110.677 33.5341 110.231 34.0455 109.918 34.6761C109.606 35.3068 109.45 35.983 109.45 36.7045V37.8636C109.45 38.8523 109.62 39.6903 109.961 40.3778C110.308 41.0597 110.788 41.5795 111.401 41.9375C112.015 42.2898 112.728 42.4659 113.54 42.4659C114.069 42.4659 114.546 42.392 114.972 42.2443C115.404 42.0909 115.776 41.8636 116.089 41.5625C116.401 41.2557 116.643 40.875 116.813 40.4205L118.756 40.9659C118.552 41.625 118.208 42.2045 117.725 42.7045C117.242 43.1989 116.646 43.5852 115.935 43.8636C115.225 44.1364 114.427 44.2727 113.54 44.2727ZM127.714 30.9091V32.6136H120.93V30.9091H127.714ZM122.907 27.7727H124.918V40.25C124.918 40.8182 125.001 41.2443 125.165 41.5284C125.336 41.8068 125.552 41.9943 125.813 42.0909C126.08 42.1818 126.362 42.2273 126.657 42.2273C126.879 42.2273 127.06 42.2159 127.202 42.1932C127.344 42.1648 127.458 42.142 127.543 42.125L127.952 43.9318C127.816 43.983 127.626 44.0341 127.381 44.0852C127.137 44.142 126.827 44.1705 126.452 44.1705C125.884 44.1705 125.327 44.0483 124.782 43.804C124.242 43.5597 123.793 43.1875 123.435 42.6875C123.083 42.1875 122.907 41.5568 122.907 40.7955V27.7727ZM138.989 38.6477V30.9091H141.001V44H138.989V41.7841H138.853C138.546 42.4489 138.069 43.0142 137.421 43.4801C136.773 43.9403 135.955 44.1705 134.967 44.1705C134.148 44.1705 133.421 43.9915 132.785 43.6335C132.148 43.2699 131.648 42.7244 131.285 41.9972C130.921 41.2642 130.739 40.3409 130.739 39.2273V30.9091H132.751V39.0909C132.751 40.0455 133.018 40.8068 133.552 41.375C134.092 41.9432 134.779 42.2273 135.614 42.2273C136.114 42.2273 136.623 42.0994 137.14 41.8438C137.663 41.5881 138.1 41.196 138.452 40.6676C138.81 40.1392 138.989 39.4659 138.989 38.6477ZM144.685 44V30.9091H146.628V32.8864H146.764C147.003 32.2386 147.435 31.7131 148.06 31.3097C148.685 30.9062 149.389 30.7045 150.173 30.7045C150.321 30.7045 150.506 30.7074 150.727 30.7131C150.949 30.7187 151.116 30.7273 151.23 30.7386V32.7841C151.162 32.767 151.006 32.7415 150.761 32.7074C150.523 32.6676 150.27 32.6477 150.003 32.6477C149.366 32.6477 148.798 32.7812 148.298 33.0483C147.804 33.3097 147.412 33.6733 147.122 34.1392C146.838 34.5994 146.696 35.125 146.696 35.7159V44H144.685ZM155.626 36.125V44H153.614V30.9091H155.558V32.9545H155.728C156.035 32.2898 156.501 31.7557 157.126 31.3523C157.751 30.9432 158.558 30.7386 159.546 30.7386C160.433 30.7386 161.208 30.9205 161.873 31.2841C162.538 31.642 163.055 32.1875 163.424 32.9205C163.793 33.6477 163.978 34.5682 163.978 35.6818V44H161.967V35.8182C161.967 34.7898 161.7 33.9886 161.165 33.4148C160.631 32.8352 159.898 32.5455 158.967 32.5455C158.325 32.5455 157.751 32.6847 157.245 32.9631C156.745 33.2415 156.35 33.6477 156.06 34.1818C155.771 34.7159 155.626 35.3636 155.626 36.125Z" fill="white"/>
<rect width="74" height="71" rx="5" fill="#D9D9D9"/>
<g clip-path="url(#clip0_13_3)">
<path d="M37 12.4375C43.2492 12.4375 49.2424 14.92 53.6612 19.3388C58.08 23.7576 60.5625 29.7508 60.5625 36C60.5625 42.2492 58.08 48.2424 53.6612 52.6612C49.2424 57.08 43.2492 59.5625 37 59.5625C30.7508 59.5625 24.7576 57.08 20.3388 52.6612C15.92 48.2424 13.4375 42.2492 13.4375 36C13.4375 29.7508 15.92 23.7576 20.3388 19.3388C24.7576 14.92 30.7508 12.4375 37 12.4375ZM37 65C44.6913 65 52.0675 61.9447 57.5061 56.5061C62.9447 51.0675 66 43.6913 66 36C66 28.3087 62.9447 20.9325 57.5061 15.4939C52.0675 10.0553 44.6913 7 37 7C29.3087 7 21.9325 10.0553 16.4939 15.4939C11.0553 20.9325 8 28.3087 8 36C8 43.6913 11.0553 51.0675 16.4939 56.5061C21.9325 61.9447 29.3087 65 37 65ZM27.8242 26.8242C26.7594 27.8891 26.7594 29.6109 27.8242 30.6645L33.1484 35.9887L27.8242 41.3129C26.7594 42.3777 26.7594 44.0996 27.8242 45.1531C28.8891 46.2066 30.6109 46.218 31.6645 45.1531L36.9887 39.8289L42.3129 45.1531C43.3777 46.218 45.0996 46.218 46.1531 45.1531C47.2066 44.0883 47.218 42.3664 46.1531 41.3129L40.8289 35.9887L46.1531 30.6645C47.218 29.5996 47.218 27.8777 46.1531 26.8242C45.0883 25.7707 43.3664 25.7594 42.3129 26.8242L36.9887 32.1484L31.6645 26.8242C30.5996 25.7594 28.8777 25.7594 27.8242 26.8242Z" fill="#4F4F4F"/>
</g>
<defs>
<clipPath id="clip0_13_3">
<rect width="58" height="58" fill="white" transform="translate(8 7)"/>
</clipPath>
</defs>
</svg>
