<svg width="383" height="71" viewBox="0 0 383 71" fill="none" xmlns="http://www.w3.org/2000/svg">
<rect width="383" height="71" rx="5" fill="#4F4F4F"/>
<path d="M102.659 30.9091C102.557 30.0455 102.142 29.375 101.415 28.8977C100.688 28.4205 99.7955 28.1818 98.7386 28.1818C97.9659 28.1818 97.2898 28.3068 96.7102 28.5568C96.1364 28.8068 95.6875 29.1506 95.3636 29.5881C95.0455 30.0256 94.8864 30.5227 94.8864 31.0795C94.8864 31.5455 94.9972 31.946 95.2188 32.2812C95.446 32.6108 95.7358 32.8864 96.0881 33.108C96.4403 33.3239 96.8097 33.5028 97.196 33.6449C97.5824 33.7812 97.9375 33.892 98.2614 33.9773L100.034 34.4545C100.489 34.5739 100.994 34.7386 101.551 34.9489C102.114 35.1591 102.651 35.446 103.162 35.8097C103.679 36.1676 104.105 36.6278 104.44 37.1903C104.776 37.7528 104.943 38.4432 104.943 39.2614C104.943 40.2045 104.696 41.0568 104.202 41.8182C103.713 42.5795 102.997 43.1847 102.054 43.6335C101.116 44.0824 99.9773 44.3068 98.6364 44.3068C97.3864 44.3068 96.304 44.1051 95.3892 43.7017C94.4801 43.2983 93.7642 42.7358 93.2415 42.0142C92.7244 41.2926 92.4318 40.4545 92.3636 39.5H94.5455C94.6023 40.1591 94.8239 40.7045 95.2102 41.1364C95.6023 41.5625 96.0966 41.8807 96.6932 42.0909C97.2955 42.2955 97.9432 42.3977 98.6364 42.3977C99.4432 42.3977 100.168 42.267 100.81 42.0057C101.452 41.7386 101.96 41.3693 102.335 40.8977C102.71 40.4205 102.898 39.8636 102.898 39.2273C102.898 38.6477 102.736 38.1761 102.412 37.8125C102.088 37.4489 101.662 37.1534 101.134 36.9261C100.605 36.6989 100.034 36.5 99.4205 36.3295L97.2727 35.7159C95.9091 35.3239 94.8295 34.7642 94.0341 34.0369C93.2386 33.3097 92.8409 32.358 92.8409 31.1818C92.8409 30.2045 93.1051 29.3523 93.6335 28.625C94.1676 27.892 94.8835 27.3239 95.7812 26.9205C96.6847 26.5114 97.6932 26.3068 98.8068 26.3068C99.9318 26.3068 100.932 26.5085 101.807 26.9119C102.682 27.3097 103.375 27.8551 103.886 28.5483C104.403 29.2415 104.676 30.0284 104.705 30.9091H102.659ZM110.157 36.125V44H108.146V26.5455H110.157V32.9545H110.327C110.634 32.2784 111.094 31.7415 111.708 31.3438C112.327 30.9403 113.151 30.7386 114.18 30.7386C115.072 30.7386 115.853 30.9176 116.523 31.2756C117.194 31.6278 117.714 32.1705 118.083 32.9034C118.458 33.6307 118.646 34.5568 118.646 35.6818V44H116.634V35.8182C116.634 34.7784 116.364 33.9744 115.825 33.4062C115.29 32.8324 114.549 32.5455 113.6 32.5455C112.941 32.5455 112.35 32.6847 111.827 32.9631C111.31 33.2415 110.901 33.6477 110.6 34.1818C110.305 34.7159 110.157 35.3636 110.157 36.125ZM122.325 44V30.9091H124.337V44H122.325ZM123.348 28.7273C122.956 28.7273 122.618 28.5938 122.334 28.3267C122.055 28.0597 121.916 27.7386 121.916 27.3636C121.916 26.9886 122.055 26.6676 122.334 26.4006C122.618 26.1335 122.956 26 123.348 26C123.74 26 124.075 26.1335 124.354 26.4006C124.638 26.6676 124.78 26.9886 124.78 27.3636C124.78 27.7386 124.638 28.0597 124.354 28.3267C124.075 28.5938 123.74 28.7273 123.348 28.7273ZM128.021 48.9091V30.9091H129.964V32.9886H130.202C130.35 32.7614 130.555 32.4716 130.816 32.1193C131.083 31.7614 131.464 31.4432 131.958 31.1648C132.458 30.8807 133.134 30.7386 133.987 30.7386C135.089 30.7386 136.06 31.0142 136.901 31.5653C137.742 32.1165 138.398 32.8977 138.87 33.9091C139.342 34.9205 139.577 36.1136 139.577 37.4886C139.577 38.875 139.342 40.0767 138.87 41.0938C138.398 42.1051 137.745 42.8892 136.91 43.446C136.075 43.9972 135.112 44.2727 134.021 44.2727C133.18 44.2727 132.506 44.1335 132.001 43.8551C131.495 43.571 131.106 43.25 130.833 42.892C130.56 42.5284 130.35 42.2273 130.202 41.9886H130.032V48.9091H128.021ZM129.998 37.4545C129.998 38.4432 130.143 39.3153 130.433 40.071C130.722 40.821 131.146 41.4091 131.702 41.8352C132.259 42.2557 132.941 42.4659 133.748 42.4659C134.589 42.4659 135.29 42.2443 135.853 41.8011C136.421 41.3523 136.847 40.75 137.131 39.9943C137.421 39.233 137.566 38.3864 137.566 37.4545C137.566 36.5341 137.424 35.7045 137.14 34.9659C136.862 34.2216 136.438 33.6335 135.87 33.2017C135.308 32.7642 134.6 32.5455 133.748 32.5455C132.93 32.5455 132.242 32.7528 131.685 33.1676C131.129 33.5767 130.708 34.1506 130.424 34.8892C130.14 35.6222 129.998 36.4773 129.998 37.4545ZM142.646 48.9091V30.9091H144.589V32.9886H144.827C144.975 32.7614 145.18 32.4716 145.441 32.1193C145.708 31.7614 146.089 31.4432 146.583 31.1648C147.083 30.8807 147.759 30.7386 148.612 30.7386C149.714 30.7386 150.685 31.0142 151.526 31.5653C152.367 32.1165 153.023 32.8977 153.495 33.9091C153.967 34.9205 154.202 36.1136 154.202 37.4886C154.202 38.875 153.967 40.0767 153.495 41.0938C153.023 42.1051 152.37 42.8892 151.535 43.446C150.7 43.9972 149.737 44.2727 148.646 44.2727C147.805 44.2727 147.131 44.1335 146.626 43.8551C146.12 43.571 145.731 43.25 145.458 42.892C145.185 42.5284 144.975 42.2273 144.827 41.9886H144.657V48.9091H142.646ZM144.623 37.4545C144.623 38.4432 144.768 39.3153 145.058 40.071C145.347 40.821 145.771 41.4091 146.327 41.8352C146.884 42.2557 147.566 42.4659 148.373 42.4659C149.214 42.4659 149.915 42.2443 150.478 41.8011C151.046 41.3523 151.472 40.75 151.756 39.9943C152.046 39.233 152.191 38.3864 152.191 37.4545C152.191 36.5341 152.049 35.7045 151.765 34.9659C151.487 34.2216 151.063 33.6335 150.495 33.2017C149.933 32.7642 149.225 32.5455 148.373 32.5455C147.555 32.5455 146.867 32.7528 146.31 33.1676C145.754 33.5767 145.333 34.1506 145.049 34.8892C144.765 35.6222 144.623 36.4773 144.623 37.4545ZM157.271 44V30.9091H159.282V44H157.271ZM158.293 28.7273C157.901 28.7273 157.563 28.5938 157.279 28.3267C157.001 28.0597 156.862 27.7386 156.862 27.3636C156.862 26.9886 157.001 26.6676 157.279 26.4006C157.563 26.1335 157.901 26 158.293 26C158.685 26 159.021 26.1335 159.299 26.4006C159.583 26.6676 159.725 26.9886 159.725 27.3636C159.725 27.7386 159.583 28.0597 159.299 28.3267C159.021 28.5938 158.685 28.7273 158.293 28.7273ZM164.977 36.125V44H162.966V30.9091H164.909V32.9545H165.08C165.386 32.2898 165.852 31.7557 166.477 31.3523C167.102 30.9432 167.909 30.7386 168.898 30.7386C169.784 30.7386 170.56 30.9205 171.224 31.2841C171.889 31.642 172.406 32.1875 172.776 32.9205C173.145 33.6477 173.33 34.5682 173.33 35.6818V44H171.318V35.8182C171.318 34.7898 171.051 33.9886 170.517 33.4148C169.983 32.8352 169.25 32.5455 168.318 32.5455C167.676 32.5455 167.102 32.6847 166.597 32.9631C166.097 33.2415 165.702 33.6477 165.412 34.1818C165.122 34.7159 164.977 35.3636 164.977 36.125ZM182.289 49.1818C181.317 49.1818 180.482 49.0568 179.783 48.8068C179.085 48.5625 178.502 48.2386 178.036 47.8352C177.576 47.4375 177.21 47.0114 176.937 46.5568L178.539 45.4318C178.721 45.6705 178.951 45.9432 179.229 46.25C179.508 46.5625 179.888 46.8324 180.371 47.0597C180.86 47.2926 181.499 47.4091 182.289 47.4091C183.346 47.4091 184.218 47.1534 184.906 46.642C185.593 46.1307 185.937 45.3295 185.937 44.2386V41.5795H185.766C185.619 41.8182 185.408 42.1136 185.136 42.4659C184.869 42.8125 184.482 43.1222 183.977 43.3949C183.477 43.6619 182.8 43.7955 181.948 43.7955C180.891 43.7955 179.942 43.5455 179.102 43.0455C178.266 42.5455 177.604 41.8182 177.116 40.8636C176.633 39.9091 176.391 38.75 176.391 37.3864C176.391 36.0455 176.627 34.8778 177.099 33.8835C177.57 32.8835 178.227 32.1108 179.067 31.5653C179.908 31.0142 180.88 30.7386 181.982 30.7386C182.835 30.7386 183.511 30.8807 184.011 31.1648C184.516 31.4432 184.903 31.7614 185.17 32.1193C185.442 32.4716 185.653 32.7614 185.8 32.9886H186.005V30.9091H187.948V44.375C187.948 45.5 187.692 46.4148 187.181 47.1193C186.675 47.8295 185.994 48.3494 185.136 48.679C184.283 49.0142 183.335 49.1818 182.289 49.1818ZM182.221 41.9886C183.028 41.9886 183.71 41.804 184.266 41.4347C184.823 41.0653 185.246 40.5341 185.536 39.8409C185.826 39.1477 185.971 38.3182 185.971 37.3523C185.971 36.4091 185.829 35.5767 185.545 34.8551C185.261 34.1335 184.84 33.5682 184.283 33.1591C183.727 32.75 183.039 32.5455 182.221 32.5455C181.369 32.5455 180.658 32.7614 180.09 33.1932C179.528 33.625 179.104 34.2045 178.82 34.9318C178.542 35.6591 178.403 36.4659 178.403 37.3523C178.403 38.2614 178.545 39.0653 178.829 39.7642C179.119 40.4574 179.545 41.0028 180.107 41.4006C180.675 41.7926 181.38 41.9886 182.221 41.9886ZM202.232 44.3068C201.403 44.3068 200.65 44.1506 199.974 43.8381C199.298 43.5199 198.761 43.0625 198.363 42.4659C197.965 41.8636 197.766 41.1364 197.766 40.2841C197.766 39.5341 197.914 38.9261 198.21 38.4602C198.505 37.9886 198.9 37.6193 199.394 37.3523C199.888 37.0852 200.434 36.8864 201.031 36.7557C201.633 36.6193 202.238 36.5114 202.846 36.4318C203.641 36.3295 204.286 36.2528 204.781 36.2017C205.281 36.1449 205.644 36.0511 205.871 35.9205C206.104 35.7898 206.221 35.5625 206.221 35.2386V35.1705C206.221 34.3295 205.991 33.6761 205.531 33.2102C205.076 32.7443 204.386 32.5114 203.46 32.5114C202.499 32.5114 201.746 32.7216 201.201 33.142C200.656 33.5625 200.272 34.0114 200.05 34.4886L198.141 33.8068C198.482 33.0114 198.937 32.392 199.505 31.9489C200.079 31.5 200.704 31.1875 201.38 31.0114C202.062 30.8295 202.732 30.7386 203.391 30.7386C203.812 30.7386 204.295 30.7898 204.84 30.892C205.391 30.9886 205.923 31.1903 206.434 31.4972C206.951 31.804 207.38 32.267 207.721 32.8864C208.062 33.5057 208.232 34.3352 208.232 35.375V44H206.221V42.2273H206.119C205.982 42.5114 205.755 42.8153 205.437 43.1392C205.119 43.4631 204.695 43.7386 204.167 43.9659C203.638 44.1932 202.994 44.3068 202.232 44.3068ZM202.539 42.5C203.335 42.5 204.005 42.3438 204.55 42.0312C205.102 41.7188 205.516 41.3153 205.795 40.821C206.079 40.3267 206.221 39.8068 206.221 39.2614V37.4205C206.136 37.5227 205.948 37.6165 205.658 37.7017C205.374 37.7812 205.045 37.8523 204.67 37.9148C204.3 37.9716 203.94 38.0227 203.587 38.0682C203.241 38.108 202.96 38.142 202.744 38.1705C202.221 38.2386 201.732 38.3494 201.278 38.5028C200.829 38.6506 200.465 38.875 200.187 39.1761C199.914 39.4716 199.778 39.875 199.778 40.3864C199.778 41.0852 200.036 41.6136 200.553 41.9716C201.076 42.3239 201.738 42.5 202.539 42.5ZM213.915 36.125V44H211.903V30.9091H213.847V32.9545H214.017C214.324 32.2898 214.79 31.7557 215.415 31.3523C216.04 30.9432 216.847 30.7386 217.835 30.7386C218.722 30.7386 219.497 30.9205 220.162 31.2841C220.827 31.642 221.344 32.1875 221.713 32.9205C222.082 33.6477 222.267 34.5682 222.267 35.6818V44H220.256V35.8182C220.256 34.7898 219.989 33.9886 219.455 33.4148C218.92 32.8352 218.188 32.5455 217.256 32.5455C216.614 32.5455 216.04 32.6847 215.534 32.9631C215.034 33.2415 214.639 33.6477 214.349 34.1818C214.06 34.7159 213.915 35.3636 213.915 36.125ZM230.886 44.2727C229.795 44.2727 228.832 43.9972 227.996 43.446C227.161 42.8892 226.508 42.1051 226.036 41.0938C225.565 40.0767 225.329 38.875 225.329 37.4886C225.329 36.1136 225.565 34.9205 226.036 33.9091C226.508 32.8977 227.164 32.1165 228.005 31.5653C228.846 31.0142 229.817 30.7386 230.92 30.7386C231.772 30.7386 232.445 30.8807 232.94 31.1648C233.44 31.4432 233.82 31.7614 234.082 32.1193C234.349 32.4716 234.556 32.7614 234.704 32.9886H234.874V26.5455H236.886V44H234.942V41.9886H234.704C234.556 42.2273 234.346 42.5284 234.073 42.892C233.8 43.25 233.411 43.571 232.906 43.8551C232.4 44.1335 231.727 44.2727 230.886 44.2727ZM231.158 42.4659C231.965 42.4659 232.647 42.2557 233.204 41.8352C233.761 41.4091 234.184 40.821 234.474 40.071C234.763 39.3153 234.908 38.4432 234.908 37.4545C234.908 36.4773 234.766 35.6222 234.482 34.8892C234.198 34.1506 233.778 33.5767 233.221 33.1676C232.664 32.7528 231.977 32.5455 231.158 32.5455C230.306 32.5455 229.596 32.7642 229.028 33.2017C228.465 33.6335 228.042 34.2216 227.758 34.9659C227.479 35.7045 227.34 36.5341 227.34 37.4545C227.34 38.3864 227.482 39.233 227.766 39.9943C228.056 40.75 228.482 41.3523 229.045 41.8011C229.613 42.2443 230.317 42.4659 231.158 42.4659ZM247.599 48.9091V30.9091H249.542V32.9886H249.781C249.928 32.7614 250.133 32.4716 250.394 32.1193C250.661 31.7614 251.042 31.4432 251.536 31.1648C252.036 30.8807 252.712 30.7386 253.565 30.7386C254.667 30.7386 255.638 31.0142 256.479 31.5653C257.32 32.1165 257.977 32.8977 258.448 33.9091C258.92 34.9205 259.156 36.1136 259.156 37.4886C259.156 38.875 258.92 40.0767 258.448 41.0938C257.977 42.1051 257.323 42.8892 256.488 43.446C255.653 43.9972 254.69 44.2727 253.599 44.2727C252.758 44.2727 252.085 44.1335 251.579 43.8551C251.073 43.571 250.684 43.25 250.411 42.892C250.138 42.5284 249.928 42.2273 249.781 41.9886H249.61V48.9091H247.599ZM249.576 37.4545C249.576 38.4432 249.721 39.3153 250.011 40.071C250.3 40.821 250.724 41.4091 251.281 41.8352C251.837 42.2557 252.519 42.4659 253.326 42.4659C254.167 42.4659 254.869 42.2443 255.431 41.8011C255.999 41.3523 256.425 40.75 256.71 39.9943C256.999 39.233 257.144 38.3864 257.144 37.4545C257.144 36.5341 257.002 35.7045 256.718 34.9659C256.44 34.2216 256.016 33.6335 255.448 33.2017C254.886 32.7642 254.178 32.5455 253.326 32.5455C252.508 32.5455 251.82 32.7528 251.263 33.1676C250.707 33.5767 250.286 34.1506 250.002 34.8892C249.718 35.6222 249.576 36.4773 249.576 37.4545ZM266.076 44.3068C265.246 44.3068 264.494 44.1506 263.817 43.8381C263.141 43.5199 262.604 43.0625 262.207 42.4659C261.809 41.8636 261.61 41.1364 261.61 40.2841C261.61 39.5341 261.758 38.9261 262.053 38.4602C262.349 37.9886 262.744 37.6193 263.238 37.3523C263.732 37.0852 264.278 36.8864 264.874 36.7557C265.477 36.6193 266.082 36.5114 266.69 36.4318C267.485 36.3295 268.13 36.2528 268.624 36.2017C269.124 36.1449 269.488 36.0511 269.715 35.9205C269.948 35.7898 270.065 35.5625 270.065 35.2386V35.1705C270.065 34.3295 269.835 33.6761 269.374 33.2102C268.92 32.7443 268.229 32.5114 267.303 32.5114C266.343 32.5114 265.59 32.7216 265.045 33.142C264.499 33.5625 264.116 34.0114 263.894 34.4886L261.985 33.8068C262.326 33.0114 262.781 32.392 263.349 31.9489C263.923 31.5 264.548 31.1875 265.224 31.0114C265.906 30.8295 266.576 30.7386 267.235 30.7386C267.656 30.7386 268.138 30.7898 268.684 30.892C269.235 30.9886 269.766 31.1903 270.278 31.4972C270.795 31.804 271.224 32.267 271.565 32.8864C271.906 33.5057 272.076 34.3352 272.076 35.375V44H270.065V42.2273H269.962C269.826 42.5114 269.599 42.8153 269.281 43.1392C268.962 43.4631 268.539 43.7386 268.011 43.9659C267.482 44.1932 266.837 44.3068 266.076 44.3068ZM266.383 42.5C267.178 42.5 267.849 42.3438 268.394 42.0312C268.945 41.7188 269.36 41.3153 269.638 40.821C269.923 40.3267 270.065 39.8068 270.065 39.2614V37.4205C269.979 37.5227 269.792 37.6165 269.502 37.7017C269.218 37.7812 268.888 37.8523 268.513 37.9148C268.144 37.9716 267.783 38.0227 267.431 38.0682C267.085 38.108 266.803 38.142 266.587 38.1705C266.065 38.2386 265.576 38.3494 265.121 38.5028C264.673 38.6506 264.309 38.875 264.031 39.1761C263.758 39.4716 263.621 39.875 263.621 40.3864C263.621 41.0852 263.88 41.6136 264.397 41.9716C264.92 42.3239 265.582 42.5 266.383 42.5ZM276.574 48.9091C276.233 48.9091 275.929 48.8807 275.662 48.8239C275.395 48.7727 275.21 48.7216 275.108 48.6705L275.619 46.8977C276.108 47.0227 276.54 47.0682 276.915 47.0341C277.29 47 277.622 46.8324 277.912 46.5312C278.207 46.2358 278.477 45.7557 278.722 45.0909L279.097 44.0682L274.256 30.9091H276.438L280.051 41.3409H280.188L283.801 30.9091H285.983L280.426 45.9091C280.176 46.5852 279.866 47.1449 279.497 47.5881C279.128 48.0369 278.699 48.3693 278.21 48.5852C277.727 48.8011 277.182 48.9091 276.574 48.9091ZM288.638 44V30.9091H290.581V32.9545H290.751C291.024 32.2557 291.464 31.7131 292.072 31.3267C292.68 30.9347 293.411 30.7386 294.263 30.7386C295.126 30.7386 295.845 30.9347 296.419 31.3267C296.999 31.7131 297.45 32.2557 297.774 32.9545H297.911C298.246 32.2784 298.749 31.7415 299.419 31.3438C300.089 30.9403 300.893 30.7386 301.831 30.7386C303.001 30.7386 303.959 31.1051 304.703 31.8381C305.447 32.5653 305.82 33.6989 305.82 35.2386V44H303.808V35.2386C303.808 34.2727 303.544 33.5824 303.016 33.1676C302.487 32.7528 301.865 32.5455 301.149 32.5455C300.229 32.5455 299.516 32.8239 299.01 33.3807C298.504 33.9318 298.251 34.6307 298.251 35.4773V44H296.206V35.0341C296.206 34.2898 295.964 33.6903 295.482 33.2358C294.999 32.7756 294.376 32.5455 293.615 32.5455C293.092 32.5455 292.604 32.6847 292.149 32.9631C291.7 33.2415 291.337 33.6278 291.058 34.1222C290.786 34.6108 290.649 35.1761 290.649 35.8182V44H288.638ZM314.986 44.2727C313.724 44.2727 312.636 43.9943 311.722 43.4375C310.812 42.875 310.111 42.0909 309.616 41.0852C309.128 40.0739 308.884 38.8977 308.884 37.5568C308.884 36.2159 309.128 35.0341 309.616 34.0114C310.111 32.983 310.798 32.1818 311.679 31.608C312.565 31.0284 313.599 30.7386 314.781 30.7386C315.463 30.7386 316.136 30.8523 316.801 31.0795C317.466 31.3068 318.071 31.6761 318.616 32.1875C319.162 32.6932 319.597 33.3636 319.92 34.1989C320.244 35.0341 320.406 36.0625 320.406 37.2841V38.1364H310.315V36.3977H318.361C318.361 35.6591 318.213 35 317.918 34.4205C317.628 33.8409 317.213 33.3835 316.673 33.0483C316.139 32.7131 315.509 32.5455 314.781 32.5455C313.98 32.5455 313.287 32.7443 312.702 33.142C312.122 33.5341 311.676 34.0455 311.364 34.6761C311.051 35.3068 310.895 35.983 310.895 36.7045V37.8636C310.895 38.8523 311.065 39.6903 311.406 40.3778C311.753 41.0597 312.233 41.5795 312.847 41.9375C313.46 42.2898 314.173 42.4659 314.986 42.4659C315.514 42.4659 315.991 42.392 316.418 42.2443C316.849 42.0909 317.222 41.8636 317.534 41.5625C317.847 41.2557 318.088 40.875 318.259 40.4205L320.202 40.9659C319.997 41.625 319.653 42.2045 319.17 42.7045C318.688 43.1989 318.091 43.5852 317.381 43.8636C316.67 44.1364 315.872 44.2727 314.986 44.2727ZM325.477 36.125V44H323.466V30.9091H325.409V32.9545H325.58C325.886 32.2898 326.352 31.7557 326.977 31.3523C327.602 30.9432 328.409 30.7386 329.398 30.7386C330.284 30.7386 331.06 30.9205 331.724 31.2841C332.389 31.642 332.906 32.1875 333.276 32.9205C333.645 33.6477 333.83 34.5682 333.83 35.6818V44H331.818V35.8182C331.818 34.7898 331.551 33.9886 331.017 33.4148C330.483 32.8352 329.75 32.5455 328.818 32.5455C328.176 32.5455 327.602 32.6847 327.097 32.9631C326.597 33.2415 326.202 33.6477 325.912 34.1818C325.622 34.7159 325.477 35.3636 325.477 36.125ZM343.198 30.9091V32.6136H336.414V30.9091H343.198ZM338.391 27.7727H340.403V40.25C340.403 40.8182 340.485 41.2443 340.65 41.5284C340.82 41.8068 341.036 41.9943 341.298 42.0909C341.565 42.1818 341.846 42.2273 342.141 42.2273C342.363 42.2273 342.545 42.2159 342.687 42.1932C342.829 42.1648 342.942 42.142 343.028 42.125L343.437 43.9318C343.3 43.983 343.11 44.0341 342.866 44.0852C342.621 44.142 342.312 44.1705 341.937 44.1705C341.369 44.1705 340.812 44.0483 340.266 43.804C339.727 43.5597 339.278 43.1875 338.92 42.6875C338.567 42.1875 338.391 41.5568 338.391 40.7955V27.7727Z" fill="white"/>
<rect width="74" height="71" rx="5" fill="#D9D9D9"/>
<g clip-path="url(#clip0_13_2)">
<path d="M17.025 11C14.4164 11 12.3 13.0996 12.3 15.6875V20.375H7.575C6.70875 20.375 6 21.0781 6 21.9375C6 22.7969 6.70875 23.5 7.575 23.5H12.3H32.775C33.6413 23.5 34.35 24.2031 34.35 25.0625C34.35 25.9219 33.6413 26.625 32.775 26.625H12.3H10.725C9.85875 26.625 9.15 27.3281 9.15 28.1875C9.15 29.0469 9.85875 29.75 10.725 29.75H12.3H29.625C30.4913 29.75 31.2 30.4531 31.2 31.3125C31.2 32.1719 30.4913 32.875 29.625 32.875H12.3H7.575C6.70875 32.875 6 33.5781 6 34.4375C6 35.2969 6.70875 36 7.575 36H12.3H26.475C27.3413 36 28.05 36.7031 28.05 37.5625C28.05 38.4219 27.3413 39.125 26.475 39.125H12.3V51.625C12.3 56.8008 16.5328 61 21.75 61C26.9672 61 31.2 56.8008 31.2 51.625H43.8C43.8 56.8008 48.0328 61 53.25 61C58.4672 61 62.7 56.8008 62.7 51.625H65.85C67.5923 51.625 69 50.2285 69 48.5C69 46.7715 67.5923 45.375 65.85 45.375V39.125V36V34.1738C65.85 32.5137 65.1905 30.9219 64.0092 29.75L56.4 22.2012C55.2188 21.0293 53.6142 20.375 51.9408 20.375H46.95V15.6875C46.95 13.0996 44.8336 11 42.225 11H17.025ZM59.55 34.1738V36H46.95V26.625H51.9408L59.55 34.1738ZM21.75 46.9375C23.0031 46.9375 24.205 47.4314 25.0911 48.3104C25.9772 49.1895 26.475 50.3818 26.475 51.625C26.475 52.8682 25.9772 54.0605 25.0911 54.9396C24.205 55.8186 23.0031 56.3125 21.75 56.3125C20.4969 56.3125 19.295 55.8186 18.4089 54.9396C17.5228 54.0605 17.025 52.8682 17.025 51.625C17.025 50.3818 17.5228 49.1895 18.4089 48.3104C19.295 47.4314 20.4969 46.9375 21.75 46.9375ZM48.525 51.625C48.525 50.3818 49.0228 49.1895 49.9089 48.3104C50.795 47.4314 51.9969 46.9375 53.25 46.9375C54.5032 46.9375 55.705 47.4314 56.5911 48.3104C57.4772 49.1895 57.975 50.3818 57.975 51.625C57.975 52.8682 57.4772 54.0605 56.5911 54.9396C55.705 55.8186 54.5032 56.3125 53.25 56.3125C51.9969 56.3125 50.795 55.8186 49.9089 54.9396C49.0228 54.0605 48.525 52.8682 48.525 51.625Z" fill="#4F4F4F"/>
</g>
<defs>
<clipPath id="clip0_13_2">
<rect width="63" height="50" fill="white" transform="translate(6 11)"/>
</clipPath>
</defs>
</svg>
